{
    "asset" : {
        "generator" : "Khronos glTF Blender I/O v1.4.40",
        "version" : "2.0"
    },
    "extensionsUsed" : [
        "KHR_materials_transmission"
    ],
    "scene" : 0,
    "scenes" : [
        {
            "name" : "Scene",
            "nodes" : [
                0,
                1,
                2,
                3,
                4,
                5
            ]
        }
    ],
    "nodes" : [
        {
            "name" : "Light",
            "rotation" : [
                0.16907575726509094,
                0.7558803558349609,
                -0.27217137813568115,
                0.570947527885437
            ],
            "translation" : [
                4.076245307922363,
                5.903861999511719,
                -1.0054539442062378
            ]
        },
        {
            "name" : "Camera",
            "rotation" : [
                0.483536034822464,
                0.33687159419059753,
                -0.20870360732078552,
                0.7804827094078064
            ],
            "translation" : [
                7.358891487121582,
                4.958309173583984,
                6.925790786743164
            ]
        },
        {
            "mesh" : 0,
            "name" : "Cube",
            "scale" : [
                0.5156421661376953,
                0.16218635439872742,
                0.5156421661376953
            ]
        },
        {
            "name" : "Point",
            "translation" : [
                0,
                -0.974014163017273,
                0
            ]
        },
        {
            "mesh" : 1,
            "name" : "Cube.001",
            "scale" : [
                0.5156421661376953,
                0.16218635439872742,
                0.5156421661376953
            ],
            "translation" : [
                -0.04524970054626465,
                0,
                0
            ]
        },
        {
            "mesh" : 2,
            "name" : "Cube.002",
            "scale" : [
                0.4713115394115448,
                0.14824292063713074,
                0.4713115394115448
            ],
            "translation" : [
                0.0055335089564323425,
                0,
                0
            ]
        }
    ],
    "materials" : [
        {
            "doubleSided" : true,
            "name" : "pill",
            "pbrMetallicRoughness" : {
                "baseColorTexture" : {
                    "index" : 0,
                    "texCoord" : 0
                },
                "metallicFactor" : 0,
                "roughnessFactor" : 0.15909090638160706
            }
        },
        {
            "doubleSided" : true,
            "extensions" : {
                "KHR_materials_transmission" : {
                    "transmissionFactor" : 0.8954545259475708
                }
            },
            "name" : "transparent",
            "pbrMetallicRoughness" : {
                "baseColorFactor" : [
                    0.8000000715255737,
                    0.0008006146526895463,
                    0,
                    1
                ],
                "metallicFactor" : 0,
                "roughnessFactor" : 0
            }
        },
        {
            "doubleSided" : true,
            "name" : "candy",
            "pbrMetallicRoughness" : {
                "baseColorTexture" : {
                    "index" : 1,
                    "texCoord" : 0
                },
                "metallicFactor" : 0,
                "roughnessFactor" : 0.663636326789856
            }
        }
    ],
    "meshes" : [
        {
            "name" : "Cube.001",
            "primitives" : [
                {
                    "attributes" : {
                        "POSITION" : 0,
                        "NORMAL" : 1,
                        "TEXCOORD_0" : 2
                    },
                    "indices" : 3,
                    "material" : 0
                }
            ]
        },
        {
            "name" : "Cube.002",
            "primitives" : [
                {
                    "attributes" : {
                        "POSITION" : 4,
                        "NORMAL" : 5,
                        "TEXCOORD_0" : 6
                    },
                    "indices" : 7,
                    "material" : 1
                }
            ]
        },
        {
            "name" : "Cube.003",
            "primitives" : [
                {
                    "attributes" : {
                        "POSITION" : 8,
                        "NORMAL" : 9,
                        "TEXCOORD_0" : 10
                    },
                    "indices" : 11,
                    "material" : 2
                }
            ]
        }
    ],
    "textures" : [
        {
            "sampler" : 0,
            "source" : 0
        },
        {
            "sampler" : 0,
            "source" : 1
        }
    ],
    "images" : [
        {
            "bufferView" : 4,
            "mimeType" : "image/jpeg",
            "name" : "360_F_60655613_Eb9vLriD63KhrD9feQRzoMXRmuIjVmJZ"
        },
        {
            "bufferView" : 13,
            "mimeType" : "image/jpeg",
            "name" : "blue-red-marble-background-texture-handmade-marbling-145215672"
        }
    ],
    "accessors" : [
        {
            "bufferView" : 0,
            "componentType" : 5126,
            "count" : 306,
            "max" : [
                0.009020132012665272,
                1.516815185546875,
                0.9920103549957275
            ],
            "min" : [
                -1.2558481693267822,
                -0.8866528272628784,
                -0.9917558431625366
            ],
            "type" : "VEC3"
        },
        {
            "bufferView" : 1,
            "componentType" : 5126,
            "count" : 306,
            "type" : "VEC3"
        },
        {
            "bufferView" : 2,
            "componentType" : 5126,
            "count" : 306,
            "type" : "VEC2"
        },
        {
            "bufferView" : 3,
            "componentType" : 5123,
            "count" : 984,
            "type" : "SCALAR"
        },
        {
            "bufferView" : 5,
            "componentType" : 5126,
            "count" : 172,
            "max" : [
                1.502884864807129,
                1.5151835680007935,
                0.9918831586837769
            ],
            "min" : [
                0,
                -0.8882843852043152,
                -0.9918831586837769
            ],
            "type" : "VEC3"
        },
        {
            "bufferView" : 6,
            "componentType" : 5126,
            "count" : 172,
            "type" : "VEC3"
        },
        {
            "bufferView" : 7,
            "componentType" : 5126,
            "count" : 172,
            "type" : "VEC2"
        },
        {
            "bufferView" : 8,
            "componentType" : 5123,
            "count" : 624,
            "type" : "SCALAR"
        },
        {
            "bufferView" : 9,
            "componentType" : 5126,
            "count" : 250,
            "max" : [
                1.502884864807129,
                1.511657476425171,
                0.9942474365234375
            ],
            "min" : [
                -0.041114263236522675,
                -0.9094409346580505,
                -0.9914889931678772
            ],
            "type" : "VEC3"
        },
        {
            "bufferView" : 10,
            "componentType" : 5126,
            "count" : 250,
            "type" : "VEC3"
        },
        {
            "bufferView" : 11,
            "componentType" : 5126,
            "count" : 250,
            "type" : "VEC2"
        },
        {
            "bufferView" : 12,
            "componentType" : 5123,
            "count" : 912,
            "type" : "SCALAR"
        }
    ],
    "bufferViews" : [
        {
            "buffer" : 0,
            "byteLength" : 3672,
            "byteOffset" : 0
        },
        {
            "buffer" : 0,
            "byteLength" : 3672,
            "byteOffset" : 3672
        },
        {
            "buffer" : 0,
            "byteLength" : 2448,
            "byteOffset" : 7344
        },
        {
            "buffer" : 0,
            "byteLength" : 1968,
            "byteOffset" : 9792
        },
        {
            "buffer" : 0,
            "byteLength" : 51571,
            "byteOffset" : 11760
        },
        {
            "buffer" : 0,
            "byteLength" : 2064,
            "byteOffset" : 63332
        },
        {
            "buffer" : 0,
            "byteLength" : 2064,
            "byteOffset" : 65396
        },
        {
            "buffer" : 0,
            "byteLength" : 1376,
            "byteOffset" : 67460
        },
        {
            "buffer" : 0,
            "byteLength" : 1248,
            "byteOffset" : 68836
        },
        {
            "buffer" : 0,
            "byteLength" : 3000,
            "byteOffset" : 70084
        },
        {
            "buffer" : 0,
            "byteLength" : 3000,
            "byteOffset" : 73084
        },
        {
            "buffer" : 0,
            "byteLength" : 2000,
            "byteOffset" : 76084
        },
        {
            "buffer" : 0,
            "byteLength" : 1824,
            "byteOffset" : 78084
        },
        {
            "buffer" : 0,
            "byteLength" : 111310,
            "byteOffset" : 79908
        }
    ],
    "samplers" : [
        {
            "magFilter" : 9729,
            "minFilter" : 9986
        }
    ],
    "buffers" : [
        {
            "byteLength" : 191220,
            "uri" : "data:application/octet-stream;base64,"
        }
    ]
}
