{
    "asset" : {
        "generator" : "Khronos glTF Blender I/O v1.4.40",
        "version" : "2.0"
    },
    "extensionsUsed" : [
        "KHR_materials_transmission"
    ],
    "scene" : 0,
    "scenes" : [
        {
            "name" : "Scene",
            "nodes" : [
                0,
                1,
                2,
                3
            ]
        }
    ],
    "nodes" : [
        {
            "name" : "Light",
            "rotation" : [
                0.16907575726509094,
                0.7558803558349609,
                -0.27217137813568115,
                0.570947527885437
            ],
            "translation" : [
                4.076245307922363,
                5.903861999511719,
                -1.0054539442062378
            ]
        },
        {
            "name" : "Camera",
            "rotation" : [
                0.483536034822464,
                0.33687159419059753,
                -0.20870360732078552,
                0.7804827094078064
            ],
            "translation" : [
                7.358891487121582,
                4.958309173583984,
                6.925790786743164
            ]
        },
        {
            "mesh" : 0,
            "name" : "Icosphere",
            "scale" : [
                0.28484103083610535,
                0.28484103083610535,
                0.28484103083610535
            ],
            "translation" : [
                0,
                -0.040762051939964294,
                0
            ]
        },
        {
            "mesh" : 1,
            "name" : "Icosphere.002",
            "scale" : [
                0.3357020914554596,
                0.3357020914554596,
                0.3357020914554596
            ],
            "translation" : [
                0,
                -0.034265413880348206,
                0
            ]
        }
    ],
    "materials" : [
        {
            "doubleSided" : true,
            "name" : "plastic",
            "pbrMetallicRoughness" : {
                "baseColorTexture" : {
                    "index" : 0,
                    "texCoord" : 0
                },
                "metallicFactor" : 0,
                "roughnessFactor" : 0.5
            }
        },
        {
            "doubleSided" : true,
            "extensions" : {
                "KHR_materials_transmission" : {
                    "transmissionFactor" : 0.9227272868156433
                }
            },
            "name" : "transparent",
            "pbrMetallicRoughness" : {
                "baseColorTexture" : {
                    "index" : 1,
                    "texCoord" : 0
                },
                "metallicFactor" : 0,
                "roughnessFactor" : 0
            }
        }
    ],
    "meshes" : [
        {
            "name" : "Icosphere",
            "primitives" : [
                {
                    "attributes" : {
                        "POSITION" : 0,
                        "NORMAL" : 1,
                        "TEXCOORD_0" : 2
                    },
                    "indices" : 3,
                    "material" : 0
                }
            ]
        },
        {
            "name" : "Icosphere.002",
            "primitives" : [
                {
                    "attributes" : {
                        "POSITION" : 4,
                        "NORMAL" : 5,
                        "TEXCOORD_0" : 6
                    },
                    "indices" : 7,
                    "material" : 1
                }
            ]
        }
    ],
    "textures" : [
        {
            "sampler" : 0,
            "source" : 0
        },
        {
            "sampler" : 1,
            "source" : 1
        }
    ],
    "images" : [
        {
            "bufferView" : 4,
            "mimeType" : "image/jpeg",
            "name" : "3841e61b2c40f01bc3f441e94940ca7d"
        },
        {
            "bufferView" : 9,
            "mimeType" : "image/png",
            "name" : "R31"
        }
    ],
    "accessors" : [
        {
            "bufferView" : 0,
            "componentType" : 5126,
            "count" : 443,
            "max" : [
                0.9231224656105042,
                1.314204454421997,
                0.9248635768890381
            ],
            "min" : [
                -0.9231224656105042,
                -0.9303051233291626,
                -0.9248635768890381
            ],
            "type" : "VEC3"
        },
        {
            "bufferView" : 1,
            "componentType" : 5126,
            "count" : 443,
            "type" : "VEC3"
        },
        {
            "bufferView" : 2,
            "componentType" : 5126,
            "count" : 443,
            "type" : "VEC2"
        },
        {
            "bufferView" : 3,
            "componentType" : 5123,
            "count" : 1440,
            "type" : "SCALAR"
        },
        {
            "bufferView" : 5,
            "componentType" : 5126,
            "count" : 1494,
            "max" : [
                0.9235502481460571,
                1.3397128582000732,
                0.9248635768890381
            ],
            "min" : [
                -0.923734188079834,
                -0.9303051233291626,
                -0.9248635768890381
            ],
            "type" : "VEC3"
        },
        {
            "bufferView" : 6,
            "componentType" : 5126,
            "count" : 1494,
            "type" : "VEC3"
        },
        {
            "bufferView" : 7,
            "componentType" : 5126,
            "count" : 1494,
            "type" : "VEC2"
        },
        {
            "bufferView" : 8,
            "componentType" : 5123,
            "count" : 5760,
            "type" : "SCALAR"
        }
    ],
    "bufferViews" : [
        {
            "buffer" : 0,
            "byteLength" : 5316,
            "byteOffset" : 0
        },
        {
            "buffer" : 0,
            "byteLength" : 5316,
            "byteOffset" : 5316
        },
        {
            "buffer" : 0,
            "byteLength" : 3544,
            "byteOffset" : 10632
        },
        {
            "buffer" : 0,
            "byteLength" : 2880,
            "byteOffset" : 14176
        },
        {
            "buffer" : 0,
            "byteLength" : 478626,
            "byteOffset" : 17056
        },
        {
            "buffer" : 0,
            "byteLength" : 17928,
            "byteOffset" : 495684
        },
        {
            "buffer" : 0,
            "byteLength" : 17928,
            "byteOffset" : 513612
        },
        {
            "buffer" : 0,
            "byteLength" : 11952,
            "byteOffset" : 531540
        },
        {
            "buffer" : 0,
            "byteLength" : 11520,
            "byteOffset" : 543492
        },
        {
            "buffer" : 0,
            "byteLength" : 11646,
            "byteOffset" : 555012
        }
    ],
    "samplers" : [
        {
            "magFilter" : 9729,
            "minFilter" : 9986,
            "wrapS" : 33071,
            "wrapT" : 33071
        },
        {
            "magFilter" : 9729,
            "minFilter" : 9986
        }
    ],
    "buffers" : [
        {
            "byteLength" : 566660,
            "uri" : "data:application/octet-stream;base64,"
        }
    ]
}
